<svg width="260" height="207" viewBox="0 0 260 207" fill="none" xmlns="http://www.w3.org/2000/svg">
<path fill-rule="evenodd" clip-rule="evenodd" d="M47.677 0.581998C38.7512 3.05504 31.1487 11.2582 29.1825 20.538C28.6792 22.9105 28.4522 27.4158 28.4456 35.1412C28.4243 60.7375 23.9388 79.2437 15.4949 88.5742C11.4105 93.0877 7.64816 95.219 1.39648 96.5601L0 96.8597V103.442V110.024L1.39648 110.324C11.4842 112.488 17.6343 118.241 22.2706 129.848C26.3575 140.081 27.9287 150.432 28.435 170.473C28.6767 180.038 29.0621 186.738 29.4435 187.993C32.1882 197.027 40.1705 204.678 48.75 206.5C50.83 206.942 71.9565 207.053 131.523 206.938L211.504 206.782L214.382 205.693C221.85 202.866 228.133 195.989 230.554 187.993C230.929 186.755 231.332 179.915 231.587 170.473C232.136 150.085 233.695 139.941 237.873 129.581C242.482 118.151 248.597 112.471 258.604 110.324L260 110.024V103.442V96.8597L258.604 96.5601C248.597 94.4131 242.482 88.7332 237.873 77.3028C233.695 66.9424 232.136 56.7989 231.587 36.4107C231.332 26.969 230.929 20.1292 230.554 18.8912C228.133 10.8952 221.85 4.01837 214.382 1.19137L211.504 0.102115L130.762 0.0173104C66.5686 -0.0497208 49.5396 0.0655526 47.677 0.581998ZM146.818 49.4752C152.971 51.1906 157.258 53.5301 161.03 57.231C166.249 62.3518 168.594 68.0241 168.594 75.527C168.594 86.5592 161.142 96.5616 150.812 99.3927L148.535 100.017L152.452 100.952C163.46 103.58 170.854 110.561 173.487 120.813C174.662 125.39 174.214 133.487 172.532 138.064C169.439 146.479 163.666 152.105 154.623 155.517C147.187 158.322 146.079 158.415 117.178 158.648L90.3906 158.865V103.445V48.0249L116.67 48.2107C141.59 48.3875 143.149 48.453 146.818 49.4752ZM108.164 78.5074V94.8092H120.536C133.456 94.8092 136.063 94.5507 140.721 92.8079C148.635 89.8473 152.526 81.6863 150.077 73.189C148.845 68.9148 145.16 65.3596 140.33 63.7854C137.155 62.7499 135.618 62.6331 122.51 62.4285L108.164 62.205V78.5074ZM108.164 126.567V144.701L123.271 144.431C134.64 144.226 139.167 143.96 141.562 143.355C147.991 141.731 152.467 138.496 154.566 133.956C155.449 132.049 155.645 130.658 155.645 126.294C155.645 121.488 155.51 120.707 154.281 118.377C152.094 114.233 148.692 111.702 142.695 109.758C140.328 108.991 137.482 108.821 124.033 108.643L108.164 108.433V126.567Z" fill="#8B13FC"/>
</svg>
