<svg width="159" height="181" viewBox="0 0 159 181" fill="none" xmlns="http://www.w3.org/2000/svg">
<path d="M159 0.1745L144.515 162.447L79.4027 180.498L14.47 162.472L0 0.1745H159Z" fill="#264DE4"/>
<path d="M132.114 152.114L144.492 13.4448H79.5V166.7L132.114 152.114Z" fill="#2965F1"/>
<path d="M33.1719 73.6385L34.9559 93.5435H79.4998V73.6385H33.1719Z" fill="#EBEBEB"/>
<path d="M79.5 33.3501H79.4312H29.5874L31.3969 53.2555H79.5V33.3501Z" fill="#EBEBEB"/>
<path d="M79.5002 146.044V125.334L79.413 125.358L57.2445 119.372L55.8273 103.496H45.0552H35.8457L38.6344 134.75L79.4086 146.07L79.5002 146.044Z" fill="#EBEBEB"/>
<path d="M103.942 93.5435L101.632 119.359L79.4314 125.351V146.06L120.238 134.75L120.537 131.387L125.215 78.9837L125.701 73.6386L129.294 33.3501H79.4314V53.2555H107.48L105.669 73.6386H79.4314V93.5435H103.942Z" fill="white"/>
</svg>
