<svg width="23" height="19" viewBox="0 0 23 19" fill="none" xmlns="http://www.w3.org/2000/svg">
<path d="M9.05208 12.4219C9.05208 11.4375 8.53645 9.84375 7.3177 9.84375C6.09895 9.84375 5.58333 11.4375 5.58333 12.4219C5.58333 13.4062 6.09895 15 7.3177 15C8.53645 15 9.05208 13.4062 9.05208 12.4219ZM22.8333 10.0781C22.8333 8.10938 22.2708 6.23438 21.0052 4.6875C21.2396 3.98438 21.3333 3.23438 21.3333 2.4375C21.3333 1.45312 21.099 0.9375 20.6771 0C18.5677 0 17.2083 0.421875 15.6146 1.6875C14.3958 1.35938 13.0833 1.21875 11.8177 1.21875C10.4583 1.21875 9.05208 1.40625 7.6927 1.6875C6.05208 0.421875 4.6927 0 2.58333 0C2.11458 0.9375 1.8802 1.45312 1.8802 2.4375C1.8802 3.23438 2.02083 3.98438 2.2552 4.73438C0.942703 6.23438 0.333328 8.10938 0.333328 10.0781C0.333328 11.5781 0.567703 13.1719 1.27083 14.5312C3.09895 18.1406 8.30208 18 11.8177 18C15.3333 18 20.2083 18.0938 21.9896 14.5312C22.6458 13.125 22.8333 11.5781 22.8333 10.0781ZM19.7865 12.4219C19.7865 16.5469 16.0365 17.1562 12.7552 17.1562H10.4583C7.17708 17.1562 3.42708 16.5469 3.42708 12.4219C3.42708 10.3594 4.6927 8.57812 6.89583 8.57812C7.78645 8.57812 8.6302 8.71875 9.52083 8.85938C10.224 8.95312 10.8802 9 11.6302 9C12.3333 9 13.0365 8.95312 13.7396 8.85938C14.6302 8.71875 15.474 8.57812 16.3646 8.57812C18.5677 8.57812 19.7865 10.3594 19.7865 12.4219ZM15.9427 9.84375C14.724 9.84375 14.2083 11.4375 14.2083 12.4219C14.2083 13.4062 14.724 15 15.9427 15C17.1146 15 17.6302 13.4062 17.6302 12.4219C17.6302 11.4375 17.1146 9.84375 15.9427 9.84375Z" fill="#080343"/>
</svg>
