<svg width="22" height="22" viewBox="0 0 22 22" fill="none" xmlns="http://www.w3.org/2000/svg">
<path d="M20.1667 0.5H2.11978C1.32291 0.5 0.666656 1.20312 0.666656 2.04688V20C0.666656 20.8438 1.32291 21.5 2.11978 21.5H20.1667C20.9635 21.5 21.6667 20.8438 21.6667 20V2.04688C21.6667 1.20312 20.9635 0.5 20.1667 0.5ZM6.99478 18.5H3.90103V8.51562H6.99478V18.5ZM5.44791 7.10938C4.41666 7.10938 3.61978 6.3125 3.61978 5.32812C3.61978 4.34375 4.41666 3.5 5.44791 3.5C6.43228 3.5 7.22916 4.34375 7.22916 5.32812C7.22916 6.3125 6.43228 7.10938 5.44791 7.10938ZM18.6667 18.5H15.526V13.625C15.526 12.5 15.526 11 13.9323 11C12.2917 11 12.0573 12.2656 12.0573 13.5781V18.5H8.96353V8.51562H11.9167V9.875H11.9635C12.3854 9.07812 13.4167 8.23438 14.9167 8.23438C18.0573 8.23438 18.6667 10.3438 18.6667 13.0156V18.5Z" fill="#080343"/>
</svg>
