<svg width="128" height="114" viewBox="0 0 128 114" fill="none" xmlns="http://www.w3.org/2000/svg">
<path fill-rule="evenodd" clip-rule="evenodd" d="M34.2519 0.584115C25.3251 2.98481 22.3994 15.5576 26.4293 34.2032C26.6964 35.4378 26.6177 35.5586 25.3887 35.8046C23.0293 36.2763 14.6534 39.8302 11.5371 41.6814C7.64307 43.9948 3.04981 48.3352 1.51901 51.1478C-2.81926 59.1183 2.22937 67.4268 15.4553 74.0823C17.9386 75.3323 21.4753 76.8257 23.3144 77.401C26.2294 78.3135 26.6293 78.5582 26.4285 79.3077C24.6139 86.0845 24.1568 97.7534 25.5104 102.743C28.9431 115.392 40.3295 116.986 55.2157 106.902C56.6265 105.947 59.1536 103.967 60.8319 102.504L63.8832 99.8427L67.7265 103.045C76.2341 110.132 83.4 113.481 90.0603 113.484C92.6227 113.484 93.4066 113.292 95.3312 112.188C102.242 108.224 104.747 96.8211 101.924 82.1727C101.382 79.3648 101.293 78.1187 101.625 78.0267C103.405 77.536 110.216 74.9156 111.99 74.0393C118.527 70.81 124.412 65.7429 126.455 61.5856C127.862 58.7201 127.793 54.7538 126.284 51.7816C123.271 45.8494 115.452 40.4068 104.68 36.7437C102.788 36.1 101.177 35.5143 101.1 35.4416C101.022 35.369 101.305 33.5991 101.729 31.5084C102.283 28.7693 102.503 25.6656 102.514 20.3977C102.528 14.0169 102.409 12.7019 101.576 10.0544C97.799 -1.95117 87.553 -3.26052 73.1665 6.42394C71.1059 7.81112 68.1707 10.0867 66.6434 11.4807L63.8664 14.0156L60.6234 11.2752C54.1953 5.84301 47.9014 2.25767 42.2611 0.815024C38.487 -0.150325 37.129 -0.189455 34.2519 0.584115ZM44.1587 7.30587C48.5025 9.0349 52.9212 11.9172 57.7548 16.1733L59.7939 17.9686L56.4236 21.9783C53.7593 25.1479 49.323 30.8428 49.2275 31.2156C49.218 31.2526 47.2753 31.511 44.9103 31.7896C42.5453 32.0683 38.7854 32.6694 36.5545 33.1257C33.4289 33.7651 32.4248 33.8356 32.1759 33.4327C31.3786 32.1427 30.3716 24.7303 30.3462 19.9677C30.3243 15.758 30.4993 14.2254 31.2982 11.6454C33.1988 5.50675 36.6844 4.3307 44.1587 7.30587ZM93.2101 6.73139C96.0657 8.86376 97.4206 14.5067 97.0074 22.5477C96.7786 27.0025 95.818 33.2736 95.2822 33.8094C95.1872 33.904 93.103 33.5965 90.6503 33.1261C88.1971 32.6557 84.4518 32.0532 82.3268 31.7871C80.2017 31.5213 78.4353 31.2685 78.4009 31.2255C78.3665 31.1829 77.3233 29.7932 76.0823 28.1377C74.8409 26.4822 72.4522 23.5044 70.7735 21.5208L67.7214 17.914L69.6461 16.2305C79.5515 7.56473 89.1457 3.69731 93.2101 6.73139ZM65.6591 24.1163C66.5453 25.0971 68.1131 26.9835 69.143 28.3088L71.0152 30.7177L67.3155 30.8419C65.2803 30.9103 61.9779 30.9103 59.9762 30.8419L56.3371 30.7177L59.8511 26.5252C61.7835 24.2195 63.5186 22.3327 63.7065 22.3327C63.894 22.3327 64.7729 23.135 65.6591 24.1163ZM75.2988 37.0602C76.2599 37.8337 81.1133 45.7767 84.2725 51.7464L86.9815 56.8647L85.1351 60.3464C84.1194 62.2612 81.5454 66.7551 79.4148 70.3331L75.5414 76.8382L69.5403 77.1473C66.2396 77.3176 60.9811 77.3198 57.855 77.1521L52.1709 76.8476L49.6738 72.9785C46.7791 68.4927 41.3478 58.6797 40.9853 57.2809C40.8133 56.617 41.4742 54.9456 43.146 51.8143C45.9113 46.6358 49.8888 39.9618 51.4265 37.9202L52.4792 36.5227H63.5551C71.7728 36.5227 74.803 36.6615 75.2988 37.0602ZM88.3403 38.4641C93.8667 39.4333 93.8366 39.42 93.5098 40.7238C93.0252 42.654 90.1734 49.8531 89.896 49.8458C89.7498 49.8419 88.5256 47.8587 87.1754 45.4383C85.8252 43.0178 84.2132 40.2078 83.5935 39.1934L82.4665 37.3491L83.4684 37.5671C84.0192 37.6871 86.2118 38.0909 88.3403 38.4641ZM43.7656 39.4252C43.2157 40.3122 41.5898 43.1085 40.1528 45.6399L37.5397 50.2418L35.9839 46.0355C33.9126 40.4344 33.7183 39.5907 34.4372 39.3271C35.4645 38.9504 41.85 37.8913 43.3331 37.8514L44.7654 37.8127L43.7656 39.4252ZM29.5976 45.0173C30.3991 47.3221 31.7833 50.8907 32.6734 52.9478L34.2919 56.6884L31.7575 62.9548C30.3634 66.4012 29.0033 70.0932 28.735 71.1587C28.1708 73.3995 28.6503 73.4171 22.2179 70.9201C12.6878 67.2208 5.56531 61.2012 5.56531 56.8462C5.56531 52.0272 12.7356 46.3095 23.8403 42.2726C25.9688 41.4986 27.8071 40.8571 27.9253 40.8463C28.0436 40.8356 28.7961 42.7125 29.5976 45.0173ZM109.098 44.5112C114.769 47.0194 120.755 52.1278 121.597 55.1791C122.454 58.2828 120.818 61.2425 116.384 64.6094C114.677 65.9058 111.732 67.7299 109.84 68.663C106.295 70.411 99.8161 72.8955 99.5831 72.5966C99.5104 72.5038 98.9174 70.8797 98.2651 68.9877C97.6128 67.0957 96.2024 63.5684 95.1313 61.1496L93.1834 56.7516L94.9202 52.7646C95.8756 50.5716 97.2727 47 98.0256 44.8277L99.3939 40.8781L103.08 42.1793C105.107 42.8948 107.815 43.944 109.098 44.5112ZM61.4653 45.5109C56.0181 46.6724 52.4542 51.1104 52.4542 56.7327C52.4542 63.1401 57.106 67.9604 63.3792 68.0533C66.793 68.104 68.9271 67.327 71.2478 65.1877C74.1176 62.5424 74.9884 60.5803 75.0004 56.7327C75.0086 53.9643 74.8327 53.1877 73.7586 51.2484C71.342 46.8869 66.2207 44.497 61.4653 45.5109ZM41.4823 70.2407C43.2509 73.295 44.596 75.8956 44.4713 76.0199C44.2485 76.243 35.2172 74.9238 34.1418 74.511C33.7144 74.3472 33.8133 73.6458 34.5783 71.4283C36.8207 64.9284 37.5083 63.3989 37.8936 64.053C38.0991 64.4021 39.7142 67.1864 41.4823 70.2407ZM92.6141 69.787C93.4835 72.1189 94.129 74.0922 94.0486 74.1726C93.8439 74.3773 84.2734 76.0827 83.3295 76.0827C82.6824 76.0827 82.8638 75.5658 84.4217 72.9652C85.4494 71.2503 87.1165 68.4136 88.127 66.6609C90.271 62.9419 89.9889 62.7453 92.6141 69.787ZM96.5245 83.9302C97.4649 89.1731 97.5771 96.8538 96.7614 100.163C95.5101 105.24 93.6263 107.483 90.3518 107.798C85.3901 108.275 76.8464 104.019 70.1444 97.7319L67.9222 95.6477L70.7155 92.4227C72.2519 90.6489 74.619 87.632 75.9761 85.7185L78.4434 82.2394L83.1769 81.7324C86.9716 81.3256 90.8868 80.6415 95.477 79.582C95.6185 79.5493 96.0898 81.5062 96.5245 83.9302ZM40.0883 81.2697C43.6865 81.766 47.2108 82.2532 47.9203 82.3521C48.9514 82.4961 49.7869 83.2916 52.0857 86.3179C53.6673 88.4 56.0374 91.3098 57.3532 92.7843C58.669 94.2588 59.7453 95.6391 59.7453 95.8515C59.7453 96.3838 54.0891 100.958 50.809 103.078C44.3418 107.259 37.4382 108.939 34.454 107.059C30.4731 104.551 29.1512 95.1321 31.2243 84.0471C31.9617 80.1027 32.0899 79.8086 32.9292 80.1307C33.2689 80.261 36.4905 80.7735 40.0883 81.2697ZM70.6243 83.5634C69.9896 84.6723 64.2637 91.5308 63.9593 91.5467C63.709 91.5601 59.2723 86.4151 57.2062 83.7152C56.6626 83.0057 57.0385 82.9627 63.7989 82.9627C69.8146 82.9627 70.9128 83.0594 70.6243 83.5634Z" fill="#00D8FF"/>
</svg>
