<svg width="24" height="20" viewBox="0 0 24 20" fill="none" xmlns="http://www.w3.org/2000/svg">
<path d="M21.5156 5.125C22.4531 4.42188 23.2969 3.57812 23.9531 2.59375C23.1094 2.96875 22.125 3.25 21.1406 3.34375C22.1719 2.73438 22.9219 1.79688 23.2969 0.625C22.3594 1.1875 21.2812 1.60938 20.2031 1.84375C19.2656 0.859375 18 0.296875 16.5937 0.296875C13.875 0.296875 11.6719 2.5 11.6719 5.21875C11.6719 5.59375 11.7187 5.96875 11.8125 6.34375C7.73436 6.10938 4.07811 4.14062 1.64061 1.1875C1.21873 1.89062 0.98436 2.73438 0.98436 3.67188C0.98436 5.35938 1.82811 6.85938 3.18748 7.75C2.39061 7.70312 1.59373 7.51562 0.937485 7.14062V7.1875C0.937485 9.57812 2.62498 11.5469 4.87498 12.0156C4.49998 12.1094 4.03123 12.2031 3.60936 12.2031C3.28123 12.2031 2.99998 12.1562 2.67186 12.1094C3.28123 14.0781 5.10936 15.4844 7.26561 15.5312C5.57811 16.8438 3.46873 17.6406 1.17186 17.6406C0.749985 17.6406 0.374985 17.5938 -1.52588e-05 17.5469C2.15623 18.9531 4.73436 19.75 7.54686 19.75C16.5937 19.75 21.5156 12.2969 21.5156 5.78125C21.5156 5.54688 21.5156 5.35938 21.5156 5.125Z" fill="#080343"/>
</svg>
