<svg width="11" height="11" viewBox="0 0 11 11" fill="none" xmlns="http://www.w3.org/2000/svg">
<path d="M8.90625 1.79688C7.94531 0.8125 6.63281 0.25 5.22656 0.25C2.36719 0.25 0.0234375 2.59375 0.0234375 5.45312C0.0234375 6.39062 0.28125 7.28125 0.726562 8.05469L0 10.75L2.74219 10.0469C3.51562 10.4453 4.35938 10.6797 5.22656 10.6797C8.10938 10.6797 10.5 8.33594 10.5 5.47656C10.5 4.07031 9.89062 2.78125 8.90625 1.79688ZM5.22656 9.78906C4.45312 9.78906 3.70312 9.57812 3.02344 9.17969L2.88281 9.08594L1.24219 9.53125L1.6875 7.9375L1.57031 7.77344C1.14844 7.07031 0.914062 6.27344 0.914062 5.45312C0.914062 3.08594 2.85938 1.14062 5.25 1.14062C6.39844 1.14062 7.47656 1.58594 8.29688 2.40625C9.11719 3.22656 9.60938 4.30469 9.60938 5.47656C9.60938 7.84375 7.61719 9.78906 5.22656 9.78906ZM7.61719 6.55469C7.47656 6.48438 6.84375 6.17969 6.72656 6.13281C6.60938 6.08594 6.51562 6.0625 6.42188 6.20312C6.35156 6.32031 6.09375 6.625 6.02344 6.71875C5.92969 6.78906 5.85938 6.8125 5.74219 6.74219C4.96875 6.36719 4.47656 6.0625 3.96094 5.19531C3.82031 4.96094 4.10156 4.98438 4.33594 4.49219C4.38281 4.39844 4.35938 4.32812 4.33594 4.25781C4.3125 4.1875 4.03125 3.55469 3.9375 3.29688C3.82031 3.03906 3.72656 3.0625 3.63281 3.0625C3.5625 3.0625 3.46875 3.0625 3.39844 3.0625C3.30469 3.0625 3.16406 3.08594 3.04688 3.22656C2.92969 3.36719 2.60156 3.67188 2.60156 4.30469C2.60156 4.96094 3.04688 5.57031 3.11719 5.66406C3.1875 5.73438 4.03125 7.04688 5.34375 7.60938C6.16406 7.98438 6.49219 8.00781 6.91406 7.9375C7.14844 7.91406 7.66406 7.63281 7.78125 7.32812C7.89844 7.02344 7.89844 6.76562 7.85156 6.71875C7.82812 6.64844 7.73438 6.625 7.61719 6.55469Z" fill="#080343"/>
</svg>
