<svg width="32" height="29" viewBox="0 0 32 29" fill="none" xmlns="http://www.w3.org/2000/svg">
<path d="M29 0.5H3C1.3125 0.5 0 1.875 0 3.5V25.5C0 27.1875 1.3125 28.5 3 28.5H29C30.625 28.5 32 27.1875 32 25.5V3.5C32 1.875 30.625 0.5 29 0.5ZM29 25.125C29 25.375 28.8125 25.5 28.625 25.5H3.375C3.125 25.5 3 25.375 3 25.125V3.875C3 3.6875 3.125 3.5 3.375 3.5H28.625C28.8125 3.5 29 3.6875 29 3.875V25.125ZM22.25 10.6875C22.5625 10.375 22.5625 9.9375 22.25 9.625L20.875 8.25C20.5625 7.9375 20.125 7.9375 19.8125 8.25L16 12.0625L12.125 8.25C11.8125 7.9375 11.375 7.9375 11.0625 8.25L9.6875 9.625C9.375 9.9375 9.375 10.375 9.6875 10.6875L13.5 14.5L9.6875 18.375C9.375 18.6875 9.375 19.125 9.6875 19.4375L11.0625 20.8125C11.375 21.125 11.875 21.125 12.125 20.8125L16 17L19.8125 20.8125C20.125 21.125 20.5625 21.125 20.875 20.8125L22.25 19.4375C22.5625 19.125 22.5625 18.625 22.25 18.375L18.4375 14.5L22.25 10.6875Z" fill="#05F3B7"/>
</svg>
