<svg width="28" height="25" viewBox="0 0 28 25" fill="none" xmlns="http://www.w3.org/2000/svg">
<path d="M1 4.85004H27C27.5 4.85004 28 4.41254 28 3.85004V1.35004C28 0.850037 27.5 0.350037 27 0.350037H1C0.4375 0.350037 0 0.850037 0 1.35004V3.85004C0 4.41254 0.4375 4.85004 1 4.85004ZM1 14.85H27C27.5 14.85 28 14.4125 28 13.85V11.35C28 10.85 27.5 10.35 27 10.35H1C0.4375 10.35 0 10.85 0 11.35V13.85C0 14.4125 0.4375 14.85 1 14.85ZM1 24.85H27C27.5 24.85 28 24.4125 28 23.85V21.35C28 20.85 27.5 20.35 27 20.35H1C0.4375 20.35 0 20.85 0 21.35V23.85C0 24.4125 0.4375 24.85 1 24.85Z" fill="white"/>
</svg>
