<svg width="42" height="38" viewBox="0 0 42 38" fill="none" xmlns="http://www.w3.org/2000/svg">
<path d="M1.5 7.375H40.5C41.25 7.375 42 6.71875 42 5.875V2.125C42 1.375 41.25 0.625 40.5 0.625H1.5C0.65625 0.625 0 1.375 0 2.125V5.875C0 6.71875 0.65625 7.375 1.5 7.375ZM1.5 22.375H40.5C41.25 22.375 42 21.7188 42 20.875V17.125C42 16.375 41.25 15.625 40.5 15.625H1.5C0.65625 15.625 0 16.375 0 17.125V20.875C0 21.7188 0.65625 22.375 1.5 22.375ZM1.5 37.375H40.5C41.25 37.375 42 36.7188 42 35.875V32.125C42 31.375 41.25 30.625 40.5 30.625H1.5C0.65625 30.625 0 31.375 0 32.125V35.875C0 36.7188 0.65625 37.375 1.5 37.375Z" fill="black"/>
</svg>
