<svg width="12" height="11" viewBox="0 0 12 11" fill="none" xmlns="http://www.w3.org/2000/svg">
<path d="M10.875 0.25H1.125C0.492188 0.25 0 0.765625 0 1.375V9.625C0 10.2578 0.492188 10.75 1.125 10.75H10.875C11.4844 10.75 12 10.2578 12 9.625V1.375C12 0.765625 11.4844 0.25 10.875 0.25ZM8.90625 7.07031C9.02344 7.1875 9.02344 7.375 8.90625 7.46875L7.94531 8.42969C7.85156 8.54688 7.66406 8.54688 7.54688 8.42969L6 6.85938L4.42969 8.42969C4.3125 8.54688 4.125 8.54688 4.03125 8.42969L3.07031 7.46875C2.95312 7.375 2.95312 7.1875 3.07031 7.07031L4.64062 5.5L3.07031 3.95312C2.95312 3.83594 2.95312 3.64844 3.07031 3.55469L4.03125 2.59375C4.125 2.47656 4.3125 2.47656 4.42969 2.59375L6 4.16406L7.54688 2.59375C7.66406 2.47656 7.85156 2.47656 7.94531 2.59375L8.90625 3.55469C9.02344 3.64844 9.02344 3.83594 8.90625 3.95312L7.33594 5.5L8.90625 7.07031Z" fill="black"/>
</svg>
