<svg width="152" height="29" viewBox="0 0 152 29" fill="none" xmlns="http://www.w3.org/2000/svg">
<path fill-rule="evenodd" clip-rule="evenodd" d="M19.1903 0.0119888C15.6003 0.184135 12.689 1.24086 10.2654 3.25147C9.8908 3.56221 9.03816 4.41721 8.70985 4.81126C7.95714 5.71475 7.34375 6.68154 6.8864 7.68531C6.84637 7.77313 6.80289 7.85162 6.78978 7.85971C6.75141 7.88336 6.66963 8.0611 6.64061 8.18393C6.60272 8.34429 6.62502 8.64088 6.68883 8.82514C6.80151 9.15053 6.95013 9.37958 7.21922 9.64259C7.45631 9.87432 7.70524 10.0323 7.99185 10.1329C8.1936 10.2037 8.22142 10.2081 8.46876 10.2083C8.71222 10.2085 8.74055 10.2043 8.85604 10.1503C9.05173 10.0589 9.15043 9.96563 9.23755 9.78979C9.30349 9.65669 9.31593 9.60832 9.32501 9.44932C9.36829 8.69232 8.64536 7.82524 7.79324 7.61207C7.71835 7.59333 7.63167 7.57801 7.60063 7.57801C7.56959 7.57801 7.54419 7.57176 7.54419 7.56413C7.54419 7.53886 7.6538 7.36187 7.86342 7.0486C8.84515 5.58149 10.1215 4.2925 11.5577 3.31768C13.8305 1.77503 16.3178 0.9151 18.9963 0.745993C19.4425 0.717823 20.3802 0.717886 20.8244 0.74614C22.1073 0.827717 23.3991 1.06863 24.5339 1.43799C25.0995 1.62209 25.4324 1.76082 25.9825 2.04161C26.9739 2.54773 27.7985 3.09343 28.6413 3.80119C29.0021 4.10424 29.8816 4.98758 30.1896 5.35623C31.3546 6.75103 32.2805 8.42514 32.7215 9.93404L32.8109 10.24H33.2056C33.4739 10.24 33.6004 10.2327 33.6004 10.2174C33.6004 10.1769 33.3887 9.54667 33.249 9.17098C32.2596 6.51139 30.6737 4.34035 28.5677 2.76241C26.5173 1.22605 23.9806 0.278414 21.2867 0.0424236C20.8391 0.00320705 19.7139 -0.0131215 19.1903 0.0119888ZM6.40118 18.7711C6.39557 18.7802 6.45056 18.9667 6.52339 19.1855C7.19572 21.206 8.12143 22.8684 9.4002 24.3519C9.64767 24.639 10.4139 25.4036 10.695 25.644C12.3697 27.076 14.275 28.0459 16.4736 28.5855C17.8091 28.9133 19.1077 29.0415 20.5557 28.9884C21.8345 28.9415 22.9103 28.8073 23.9718 28.5622C27.1954 27.818 29.8374 26.1378 31.7289 23.6288C32.1951 23.0104 32.5641 22.4122 32.9248 21.69C33.0601 21.4191 33.2014 21.1503 33.2388 21.0926C33.3358 20.9429 33.377 20.7888 33.376 20.5791C33.3724 19.8281 32.6443 18.9984 31.82 18.8061C31.6229 18.7601 31.3197 18.7745 31.1565 18.8376C30.8162 18.9692 30.6202 19.3437 30.6774 19.7534C30.7344 20.1621 30.9384 20.5284 31.3008 20.8726C31.4902 21.0525 31.6418 21.1577 31.8599 21.2608C32.0194 21.3362 32.3022 21.4175 32.4048 21.4175C32.4376 21.4175 32.4645 21.4218 32.4645 21.4271C32.4645 21.444 32.1703 21.903 32.0274 22.1092C31.543 22.8079 31.0318 23.4162 30.3965 24.0498C29.6806 24.764 29.0561 25.2739 28.2409 25.8101C26.1364 27.1942 23.9156 27.9776 21.4011 28.2231C20.8608 28.2758 19.3165 28.2755 18.7745 28.2226C17.5541 28.1034 16.5023 27.8939 15.4816 27.5667C14.584 27.2789 13.6381 26.8115 12.6912 26.1878C10.7969 24.9399 9.32134 23.3278 8.21967 21.3022C7.81775 20.5633 7.41291 19.5842 7.23163 18.9128L7.19202 18.766L6.80171 18.7603C6.58702 18.7572 6.40679 18.7621 6.40118 18.7711Z" fill="white"/>
<path d="M10.2231 10.2567C9.96906 10.3443 9.66872 10.5716 9.23515 11.0043C8.5865 11.6516 8.29526 12.0135 6.41999 14.5024C4.99518 16.3935 4.94551 16.4565 4.835 16.5123C4.70487 16.578 4.52359 16.5902 4.40579 16.5411C4.13642 16.4288 3.99792 16.0805 4.12486 15.8346C4.15117 15.7837 4.66213 15.0885 5.26033 14.2898C5.85852 13.4911 6.3653 12.8073 6.3865 12.7702C6.40768 12.7331 6.45903 12.6528 6.50062 12.5916C6.62224 12.4129 6.64685 12.2673 6.58856 12.0716C6.5189 11.8376 6.31335 11.6334 6.07212 11.5585C5.85758 11.4919 5.64075 11.5191 5.48739 11.632C5.4486 11.6605 5.14574 12.0546 4.81439 12.5077C4.01432 13.6018 3.7572 13.947 3.49086 14.2851L3.26804 14.5679L3.25753 13.6353L3.24702 12.7028L1.65234 12.6974C0.49173 12.6935 0.0498888 12.6985 0.0290858 12.7157C-0.0151676 12.7523 -0.0071609 12.8754 0.0411481 12.9012C0.0680868 12.9155 0.588832 12.9229 1.58451 12.9229H3.08724L3.09359 13.778C3.09934 14.5548 3.10334 14.6382 3.13719 14.6897C3.19911 14.7839 3.2813 14.7677 3.40832 14.6364C3.67951 14.3559 4.65177 13.0739 5.38764 12.0264C5.52633 11.829 5.61332 11.761 5.77256 11.7254C6.10053 11.6522 6.40949 11.9021 6.40949 12.2405C6.40949 12.3351 6.39635 12.3962 6.36154 12.4634C6.33516 12.5144 5.7891 13.2635 5.14803 14.1281C4.50699 14.9927 3.95884 15.7472 3.92995 15.8049C3.72702 16.2096 4.12106 16.7597 4.61596 16.7625C4.79636 16.7636 4.93893 16.7113 5.04528 16.6053C5.1877 16.4633 5.41965 16.165 6.33579 14.9455C7.90011 12.8633 8.54252 12.0524 9.21897 11.3064C9.62049 10.8635 9.91421 10.6003 10.1275 10.492C10.2959 10.4065 10.5022 10.464 10.5907 10.621C10.7503 10.9042 10.5699 11.489 9.98727 12.577C9.52469 13.4409 9.23822 13.9113 7.58914 16.515L6.40921 18.3779L6.51407 18.3641C6.90451 18.3124 7.45096 18.3121 8.08194 18.3632L8.25197 18.3769L8.57374 17.814C10.5322 14.388 12.1929 12.0997 13.4616 11.0789C13.7914 10.8135 14.1629 10.6013 14.4585 10.5095C14.6611 10.4465 15.005 10.4403 15.1521 10.4969C15.2731 10.5435 15.3918 10.6638 15.4337 10.7823C15.4851 10.9277 15.4758 11.1539 15.4109 11.3339C15.2602 11.7521 14.9063 12.3576 14.1945 13.4154C12.9407 15.2787 12.7427 15.6423 12.6387 16.2737C12.5902 16.5676 12.6055 17.056 12.67 17.2789C12.7618 17.596 12.9154 17.8614 13.1329 18.0783C13.4243 18.369 13.7443 18.5017 14.1545 18.502C14.3118 18.5021 14.3791 18.4908 14.5377 18.4378C14.9901 18.2866 15.3818 18.0116 15.9886 17.4192C16.3996 17.0179 16.642 16.7496 17.21 16.0669C18.1706 14.9125 18.8069 14.0802 18.9648 13.7718C19.0154 13.6728 19.5565 12.9326 19.907 12.4827C20.9522 11.1414 21.6372 10.4909 22.0417 10.4557C22.1403 10.4471 22.1702 10.4533 22.2312 10.4948C22.3541 10.5784 22.3901 10.6641 22.3884 10.8688C22.386 11.1686 22.2913 11.4415 21.9486 12.1369C21.4894 13.0686 21.1554 13.6226 19.2449 16.6223C18.6503 17.5561 18.1557 18.3334 18.1459 18.3496C18.1312 18.3741 18.1458 18.3766 18.2313 18.3645C18.6054 18.3117 19.5858 18.3107 19.9117 18.3629L19.997 18.3766L20.2465 17.9292C21.7882 15.1639 23.5178 12.7036 24.857 11.3707C25.2532 10.9764 25.5011 10.7712 25.7587 10.6243C26.3308 10.2981 26.7544 10.4456 26.805 10.9884C26.832 11.2793 26.7185 11.6169 26.3374 12.3779C25.8829 13.2855 25.4713 13.9736 23.8299 16.5699C23.2213 17.5325 22.7155 18.3334 22.7057 18.3496C22.6911 18.3741 22.7057 18.3767 22.7911 18.3648C23.1742 18.3117 24.1501 18.3109 24.4597 18.3635L24.5332 18.376L24.6482 18.1803C25.4222 16.8631 26.6341 14.9842 27.3723 13.9567C28.7246 12.0745 29.7743 10.9827 30.6047 10.5945C30.99 10.4144 31.3575 10.4018 31.5664 10.5615C31.6755 10.645 31.7282 10.7462 31.756 10.9262C31.7855 11.1164 31.7322 11.3262 31.567 11.6705C31.3427 12.1378 31.073 12.5629 30.2204 13.7927C29.9487 14.1847 29.6606 14.6044 29.5802 14.7254C29.2769 15.182 29.0219 15.7952 28.9455 16.2517C28.8959 16.5481 28.9099 17.0099 28.9762 17.2616C29.1373 17.8738 29.5524 18.3215 30.0849 18.4575C30.2797 18.5072 30.56 18.516 30.7216 18.4773C31.4046 18.3139 32.2745 17.566 33.4708 16.1136C33.6669 15.8755 34.6762 14.534 35.5638 13.3316C36.1031 12.6011 36.1208 12.5797 36.2375 12.5189C36.3562 12.457 36.5839 12.4564 36.7001 12.5178C36.9535 12.6517 37.0713 12.9521 36.9634 13.1893C36.9413 13.2378 36.4574 13.9169 35.8881 14.6984L34.8528 16.1193L34.8446 16.2555C34.8281 16.5288 34.9977 16.7937 35.2773 16.931C35.4023 16.9923 35.4361 16.9996 35.5962 16.9994C35.7783 16.9991 35.8952 16.9611 36.0022 16.8672C36.023 16.8489 36.5715 16.1082 37.221 15.2212C37.8704 14.3342 38.4288 13.5813 38.4619 13.548C38.5669 13.4422 38.6384 13.416 38.8221 13.416C39.0096 13.416 39.0792 13.4427 39.1961 13.5593C39.2824 13.6454 39.3332 13.7491 39.3504 13.8745C39.374 14.0458 39.3298 14.139 39.0494 14.51C38.7962 14.8451 38.7599 14.917 38.8158 14.9728L40 14.9974V14.7975H39.0848C39.0848 14.7911 39.1745 14.6605 39.2841 14.5074C39.5205 14.1771 39.552 14.1095 39.551 13.9336C39.5495 13.6765 39.3703 13.413 39.1104 13.2856C39.0042 13.2337 38.9669 13.2268 38.7906 13.2268C38.5661 13.2269 38.4771 13.2599 38.357 13.3874C38.3207 13.4259 37.7736 14.1647 37.1412 15.0294C36.5088 15.894 35.9664 16.6282 35.9358 16.6609C35.8379 16.7659 35.7288 16.8097 35.5651 16.8097C35.3912 16.8097 35.2871 16.764 35.1722 16.6371C35.0754 16.5302 35.0356 16.4045 35.0471 16.2424C35.0488 16.218 35.5172 15.5469 36.0878 14.7513C36.688 13.9145 37.142 13.2617 37.1647 13.2028C37.2845 12.8932 37.0925 12.5064 36.7366 12.3401C36.635 12.2926 36.5872 12.2836 36.4371 12.2836C36.2784 12.2836 36.2457 12.2906 36.1429 12.3465C36.034 12.4057 35.9779 12.4751 35.1658 13.5555C34.692 14.1859 34.1483 14.9121 33.9576 15.1693C32.7031 16.8615 31.6859 17.8993 31.0039 18.183C30.6772 18.3188 30.3633 18.307 30.1784 18.1519C30.0676 18.0589 30.0219 17.9465 30.0115 17.742C30.0001 17.5184 30.0512 17.3004 30.1843 17.0043C30.3339 16.6715 30.4176 16.537 31.2502 15.2914C32.194 13.8795 32.3666 13.5686 32.5596 12.9333C32.7087 12.4427 32.736 11.9187 32.6333 11.5185C32.4991 10.9951 32.1503 10.5329 31.7477 10.3449C31.0531 10.0207 30.3077 10.3404 29.2071 11.4344C28.6454 11.9928 28.1157 12.6144 27.4653 13.4786C27.3006 13.6975 27.1568 13.886 27.1457 13.8975C27.1347 13.909 27.1703 13.8383 27.2248 13.7403C27.4424 13.3492 27.6221 12.9175 27.721 12.5486C27.7812 12.324 27.7865 12.2769 27.7879 11.9587C27.7898 11.5395 27.7496 11.3482 27.5915 11.0243C27.4755 10.7868 27.275 10.5509 27.0783 10.4207C26.8284 10.2552 26.4624 10.1854 26.1769 10.2487C25.4027 10.4205 24.3217 11.4707 22.9526 13.3808C22.7737 13.6304 22.6191 13.8433 22.6091 13.8538C22.5991 13.8644 22.6701 13.7163 22.7668 13.5248C23.3252 12.4187 23.4521 11.6926 23.2003 11.044C23.0812 10.7374 22.8254 10.4364 22.5833 10.3181C22.417 10.2369 22.2203 10.206 22.0594 10.2359C21.8855 10.2681 21.6314 10.3931 21.4128 10.5538C21.1942 10.7146 20.6101 11.2965 20.3392 11.6233C19.801 12.2729 19.1101 13.1759 18.7756 13.6669C17.6477 15.3228 16.4395 16.8198 15.6877 17.4931C14.934 18.1682 14.4026 18.3972 13.9954 18.2223C13.8792 18.1724 13.8155 18.1146 13.7568 18.0057C13.6952 17.8916 13.6922 17.5587 13.7512 17.3874C13.914 16.9151 14.3038 16.2263 15.0678 15.0608C16.1056 13.4778 16.486 12.5649 16.4111 11.8371C16.3562 11.3031 16.1723 10.9124 15.8249 10.5916C15.2949 10.1021 14.5784 10.1006 13.8118 10.5876C13.1846 10.986 12.3773 11.8664 11.173 13.4654C10.9419 13.7722 10.7434 14.0327 10.7319 14.0442C10.705 14.0712 10.7127 14.0568 10.817 13.8859C11.0863 13.4445 11.3271 12.946 11.4538 12.5681C11.5788 12.1951 11.6057 12.0475 11.605 11.7386C11.6043 11.4078 11.5615 11.2227 11.4186 10.9332C11.2924 10.6775 11.0504 10.4223 10.842 10.325C10.6104 10.2169 10.4043 10.1942 10.2231 10.2567Z" fill="white"/>
<path d="M44.7755 21V9.19196H45.5456L53.2037 18.0159V9.19196H54.6797V21H53.931L46.2408 12.1761V21H44.7755ZM62.787 19.9518C64.0063 19.9518 65.001 19.6238 65.7711 18.9678C66.5412 18.3047 66.9262 17.4633 66.9262 16.4436C66.9262 15.4311 66.5376 14.5933 65.7604 13.9302C64.9903 13.267 63.9992 12.9355 62.787 12.9355C61.5748 12.9355 60.5837 13.267 59.8136 13.9302C59.0507 14.5862 58.6692 15.424 58.6692 16.4436C58.6692 17.4633 59.0507 18.3047 59.8136 18.9678C60.5837 19.6238 61.5748 19.9518 62.787 19.9518ZM62.787 21.2888C61.1613 21.2888 59.8243 20.8289 58.7761 19.909C57.728 18.9892 57.2039 17.8341 57.2039 16.4436C57.2039 15.0461 57.7244 13.8945 58.7654 12.9889C59.8136 12.0762 61.1541 11.6199 62.787 11.6199C64.4342 11.6199 65.7782 12.0727 66.8193 12.9782C67.8675 13.8838 68.3916 15.0389 68.3916 16.4436C68.3916 17.8412 67.8675 18.9999 66.8193 19.9197C65.7711 20.8324 64.427 21.2888 62.787 21.2888ZM74.702 21H73.964L69.3756 11.8659H70.8943L74.3277 18.7004L77.7075 11.8659H79.2798L74.702 21ZM81.7291 17.4704H85.3014L83.5259 13.9729L81.7291 17.4704ZM78.4241 21L83.066 11.8659H83.9645L88.6492 21H87.1197L85.9325 18.679H81.1087L79.9322 21H78.4241ZM97.4624 21V9.19196H98.8208L103.591 16.4222L108.393 9.19196H109.73V21H108.276V11.7803L103.591 18.7646L98.9063 11.7803V21H97.4624ZM112.982 11.8873H114.415V17.7378C114.415 18.6149 114.622 19.2067 115.035 19.5133C115.449 19.8199 116.269 19.9732 117.495 19.9732C118.729 19.9732 119.553 19.8199 119.966 19.5133C120.38 19.2067 120.586 18.6149 120.586 17.7378V11.8873H122.009V18.1122C122.009 19.2316 121.653 20.041 120.939 20.5401C120.234 21.0392 119.078 21.2888 117.474 21.2888C115.877 21.2888 114.729 21.0428 114.03 20.5508C113.331 20.0588 112.982 19.2459 112.982 18.1122V11.8873ZM124.373 19.8342L125.068 18.6363C125.695 19.057 126.38 19.385 127.122 19.6203C127.863 19.8556 128.573 19.9732 129.25 19.9732C130.063 19.9732 130.719 19.8092 131.218 19.4812C131.717 19.1461 131.967 18.7183 131.967 18.1977C131.967 17.6772 131.739 17.2922 131.282 17.0426C130.826 16.7859 130.106 16.6433 129.122 16.6148C127.46 16.5934 126.319 16.4009 125.699 16.0372C125.079 15.6735 124.769 15.071 124.769 14.2296C124.769 13.4453 125.107 12.8142 125.785 12.3365C126.469 11.8588 127.385 11.6199 128.533 11.6199C129.318 11.6199 130.077 11.7304 130.812 11.9515C131.553 12.1725 132.266 12.5005 132.951 12.9355L132.234 14.1227C131.664 13.7376 131.05 13.4417 130.394 13.2349C129.738 13.021 129.111 12.9141 128.512 12.9141C127.82 12.9141 127.264 13.0353 126.843 13.2777C126.423 13.5202 126.212 13.8375 126.212 14.2296C126.212 14.6361 126.423 14.9249 126.843 15.096C127.271 15.2671 128.009 15.3527 129.057 15.3527C130.512 15.3527 131.61 15.5987 132.352 16.0907C133.093 16.5827 133.464 17.3136 133.464 18.2833C133.464 19.1461 133.086 19.8627 132.33 20.4331C131.582 21.0036 130.608 21.2888 129.41 21.2888C128.526 21.2888 127.646 21.164 126.769 20.9144C125.899 20.6577 125.1 20.2977 124.373 19.8342ZM136.02 21V11.8445H137.475V21H136.02ZM150.288 18.7646C149.768 19.5846 149.083 20.2121 148.235 20.647C147.393 21.0749 146.434 21.2888 145.358 21.2888C143.753 21.2888 142.431 20.836 141.39 19.9304C140.356 19.0177 139.839 17.8626 139.839 16.465C139.839 15.0675 140.356 13.9123 141.39 12.9996C142.431 12.0798 143.753 11.6199 145.358 11.6199C146.356 11.6199 147.262 11.8088 148.074 12.1868C148.887 12.5575 149.543 13.0852 150.042 13.7697L148.909 14.5612C148.531 14.0407 148.032 13.6414 147.411 13.3633C146.798 13.0781 146.114 12.9355 145.358 12.9355C144.188 12.9355 143.219 13.2706 142.448 13.9408C141.686 14.604 141.304 15.4382 141.304 16.4436C141.304 17.449 141.689 18.2869 142.459 18.9571C143.229 19.6203 144.195 19.9518 145.358 19.9518C146.171 19.9518 146.887 19.7914 147.508 19.4705C148.128 19.1496 148.673 18.6505 149.144 17.9731L150.288 18.7646Z" fill="white"/>
</svg>
