<svg width="256" height="185" viewBox="0 0 256 185" fill="none" xmlns="http://www.w3.org/2000/svg">
<path fill-rule="evenodd" clip-rule="evenodd" d="M122.659 0.075191C99.7129 1.15485 81.1045 7.78241 65.6134 20.3925C63.2192 22.3413 57.7693 27.7037 55.6709 30.1751C50.8598 35.8416 46.9391 41.9051 44.0159 48.2004C43.76 48.7512 43.4822 49.2436 43.3983 49.2943C43.1531 49.4426 42.6304 50.5573 42.4449 51.3277C42.2027 52.3335 42.3452 54.1936 42.7531 55.3492C43.4733 57.39 44.4232 58.8265 46.1432 60.4761C47.6586 61.9295 49.2497 62.9202 51.0816 63.5512C52.3711 63.9954 52.549 64.023 54.1299 64.0242C55.686 64.0253 55.8671 63.9987 56.6053 63.6604C57.8561 63.0869 58.4869 62.5021 59.0438 61.3993C59.4652 60.5645 59.5447 60.2611 59.6028 59.2639C59.8794 54.5162 55.2587 49.078 49.8121 47.7411C49.3335 47.6236 48.7794 47.5275 48.5811 47.5275C48.3827 47.5275 48.2203 47.4883 48.2203 47.4405C48.2203 47.2819 48.9209 46.1719 50.2607 44.2072C56.5357 35.0058 64.6936 26.9216 73.8734 20.8077C88.4004 11.1326 104.299 5.73929 121.419 4.6787C124.271 4.50202 130.264 4.50241 133.104 4.67962C141.304 5.19125 149.56 6.70222 156.814 9.01876C160.429 10.1734 162.557 11.0435 166.072 12.8045C172.409 15.9788 177.68 19.4013 183.067 23.8402C185.373 25.7408 190.995 31.2809 192.963 33.593C200.41 42.3409 206.328 52.8405 209.147 62.304L209.718 64.2226H212.241C213.956 64.2226 214.764 64.1771 214.764 64.0809C214.764 63.8269 213.411 59.8745 212.518 57.5183C206.194 40.8379 196.058 27.2217 182.597 17.3252C169.491 7.68947 153.277 1.74615 136.059 0.266071C133.198 0.0201139 126.006 -0.0822949 122.659 0.075191ZM41.0562 120.847C41.0204 120.904 41.3719 122.073 41.8374 123.446C46.1348 136.118 52.0516 146.544 60.2251 155.848C61.8069 157.649 66.7042 162.444 68.501 163.952C79.2056 172.933 91.3837 179.016 105.436 182.4C113.973 184.456 122.273 185.26 131.528 184.927C139.702 184.633 146.578 183.791 153.363 182.254C173.967 177.587 190.854 167.049 202.944 151.313C205.924 147.434 208.282 143.683 210.588 139.153C211.453 137.454 212.355 135.768 212.594 135.407C213.215 134.468 213.478 133.501 213.472 132.186C213.449 127.476 208.795 122.272 203.526 121.066C202.266 120.778 200.328 120.868 199.285 121.264C197.11 122.089 195.858 124.438 196.223 127.008C196.587 129.571 197.891 131.868 200.208 134.027C201.418 135.155 202.387 135.815 203.781 136.461C204.8 136.934 206.609 137.444 207.264 137.444C207.474 137.444 207.646 137.471 207.646 137.505C207.646 137.61 205.765 140.49 204.852 141.782C201.756 146.164 198.488 149.98 194.428 153.954C189.852 158.433 185.86 161.631 180.649 164.994C167.198 173.674 153.003 178.588 136.932 180.127C133.478 180.458 123.608 180.456 120.143 180.124C112.343 179.377 105.62 178.062 99.096 176.01C93.3586 174.206 87.3125 171.274 81.2604 167.362C69.1523 159.536 59.7211 149.425 52.6795 136.721C50.1106 132.087 47.523 125.946 46.3643 121.735L46.1111 120.815L43.6163 120.779C42.2441 120.76 41.0921 120.79 41.0562 120.847ZM113.411 125.152C112.055 125.441 111.105 125.96 110.059 126.983C108.62 128.392 107.986 129.924 107.99 131.984C107.994 134.084 108.667 135.743 110.071 137.116C111.373 138.388 113.01 139.022 114.994 139.022C117.066 139.022 118.599 138.452 120.014 137.157C121.972 135.364 122.688 132.398 121.824 129.661C120.775 126.338 117.098 124.367 113.411 125.152ZM83.4094 131.995V138.771L84.2488 138.732L85.0882 138.693L85.1554 133.77L85.2225 128.847L89.6404 133.81C93.831 138.518 94.0796 138.771 94.4755 138.733L94.8928 138.693V131.989V125.285H94.0198H93.1468L93.0796 130.187L93.0125 135.09L88.6474 130.157C84.5854 125.566 84.252 125.224 83.8459 125.221L83.4094 125.219V131.995ZM132.677 125.286C132.599 125.363 138.906 138.273 139.182 138.601C139.265 138.7 139.529 138.755 139.803 138.733L140.28 138.693L143.538 132.12C145.33 128.505 146.797 125.474 146.8 125.383C146.802 125.269 146.545 125.219 145.947 125.219C145.421 125.219 145.04 125.282 144.96 125.383C144.888 125.474 143.691 127.87 142.299 130.709C140.907 133.547 139.724 135.825 139.669 135.77C139.615 135.715 138.425 133.333 137.026 130.477L134.483 125.285L133.62 125.246C133.145 125.225 132.721 125.243 132.677 125.286ZM161.59 126.559C161.231 127.304 159.728 130.32 158.249 133.262C156.77 136.203 155.594 138.643 155.636 138.684C155.678 138.725 156.082 138.759 156.533 138.759H157.354L158.288 136.917L159.221 135.074L162.965 135.109L166.708 135.144L167.668 136.949L168.629 138.753L169.535 138.756C170.034 138.758 170.438 138.715 170.432 138.66C170.427 138.606 168.901 135.574 167.041 131.923L163.659 125.285L162.951 125.245L162.243 125.205L161.59 126.559ZM117.39 127.106C119.25 128.026 120.348 129.84 120.342 131.984C120.336 134.32 119.234 136.073 117.179 137.013C116.475 137.335 116.226 137.377 115.039 137.377C113.864 137.377 113.6 137.333 112.928 137.026C111.912 136.56 110.872 135.589 110.39 134.653C109.074 132.103 109.943 128.686 112.243 127.367C113.316 126.752 113.73 126.659 115.241 126.701C116.47 126.735 116.745 126.787 117.39 127.106ZM165.868 133.402C165.872 133.456 164.576 133.501 162.988 133.501C161.399 133.501 160.1 133.475 160.1 133.444C160.1 133.413 160.74 132.097 161.522 130.519L162.944 127.651L164.402 130.477C165.205 132.032 165.864 133.348 165.868 133.402ZM130.485 140.745C128.839 140.981 127.527 141.69 126.83 142.721C126.308 143.493 126.232 144.802 126.66 145.667C126.955 146.263 127.71 146.927 128.403 147.199C129.094 147.47 131.217 147.816 133.012 147.95C134.357 148.05 135.041 148.163 135.497 148.36C137.657 149.295 137.66 151.424 135.504 152.568L134.648 153.022L132.835 153.017C131.178 153.012 130.936 152.98 130.015 152.64C129.153 152.321 127.917 151.679 127.017 151.081C126.809 150.942 126.73 150.971 126.477 151.278C126.314 151.476 126.079 151.805 125.955 152.011L125.73 152.383L126.601 152.944C128.397 154.1 130.406 154.674 132.701 154.688C135.201 154.703 136.713 154.179 137.93 152.875C139.43 151.269 139.219 148.836 137.466 147.539C136.529 146.845 135.466 146.525 133.574 146.368C130.025 146.073 128.865 145.77 128.381 145.014C127.862 144.203 128.287 143.301 129.45 142.744C130.059 142.452 130.432 142.374 131.417 142.334C133.312 142.255 134.964 142.746 136.677 143.896L137.228 144.267L137.719 143.583L138.209 142.9L137.839 142.603C137.218 142.106 135.377 141.276 134.313 141.014C133.045 140.702 131.528 140.595 130.485 140.745ZM173.195 140.735C169.69 141.192 167.222 144.068 167.222 147.698C167.222 149.726 167.917 151.419 169.3 152.759C170.702 154.118 172.131 154.673 174.276 154.69C176.794 154.709 179.01 153.595 180.247 151.686L180.642 151.075L179.95 150.57C179.569 150.292 179.244 150.064 179.228 150.064C179.211 150.064 179.045 150.319 178.858 150.631C178.392 151.41 177.42 152.255 176.509 152.672C175.827 152.985 175.592 153.022 174.27 153.02C172.911 153.017 172.73 152.986 172.02 152.637C169.866 151.576 168.733 149.302 169.099 146.774C169.352 145.03 170.437 143.539 172.02 142.759C172.731 142.41 172.91 142.379 174.272 142.377C175.673 142.374 175.799 142.397 176.639 142.801C177.453 143.194 178.383 143.995 178.732 144.606C178.863 144.835 178.917 144.818 179.559 144.357C179.937 144.085 180.246 143.804 180.246 143.732C180.246 143.446 178.578 141.921 177.856 141.546C176.461 140.822 174.778 140.529 173.195 140.735ZM152.31 147.632V154.402H153.183H154.056V147.632V140.862H153.183H152.31V147.632ZM73.8734 147.698V154.402H74.7448H75.6163L75.6514 149.244L75.6866 144.085L78.3056 147.924C79.7461 150.035 80.9573 151.765 80.9972 151.768C81.0371 151.771 82.2458 150.065 83.6834 147.976L86.297 144.18L86.3642 149.258L86.4313 154.337L87.2708 154.376L88.1102 154.415V147.704V140.994H87.3253H86.5403L83.8123 145.003C82.3119 147.208 81.0483 149.012 81.0044 149.011C80.9606 149.009 79.7159 147.206 78.2384 145.002L75.5523 140.996L74.7128 140.995L73.8734 140.994V147.698ZM101.811 145.628C101.811 148.176 101.874 150.646 101.95 151.116C102.232 152.862 103.074 153.904 104.562 154.35C105.567 154.651 107.363 154.782 108.741 154.656C111.025 154.447 112.217 153.737 112.839 152.216C113.148 151.459 113.155 151.346 113.199 146.219L113.243 140.994H112.361H111.48L111.476 145.299C111.47 151.354 111.348 152.023 110.13 152.693C109.569 153.002 109.414 153.022 107.585 153.022C105.776 153.022 105.59 152.999 104.968 152.693C103.735 152.088 103.763 152.233 103.718 146.219L103.679 140.994H102.744H101.81L101.811 145.628Z" fill="white"/>
<path d="M65.343 64.3276C63.7194 64.8771 61.7997 66.3025 59.0285 69.0162C54.8825 73.076 53.0209 75.3459 41.0348 90.9557C31.9278 102.816 31.6103 103.211 30.9039 103.561C30.0722 103.973 28.9135 104.05 28.1605 103.742C26.4388 103.038 25.5536 100.853 26.365 99.3111C26.5331 98.9916 29.799 94.6316 33.6225 89.6223C37.446 84.613 40.6852 80.3242 40.8207 80.0916C40.9561 79.8591 41.2843 79.3552 41.5501 78.9719C42.3275 77.8507 42.4848 76.9379 42.1122 75.7101C41.667 74.2425 40.3531 72.9618 38.8113 72.4921C37.44 72.0743 36.054 72.2453 35.0738 72.9531C34.8259 73.1321 32.8901 75.6038 30.7722 78.4456C25.6584 85.3072 24.0149 87.4725 22.3126 89.5928L20.8884 91.3665L20.8212 85.5176L20.754 79.6688L10.5613 79.6352C3.143 79.6106 0.318875 79.6419 0.185908 79.7498C-0.0969471 79.9796 -0.0457704 80.7513 0.263007 80.9131C0.435191 81.0033 3.76365 81.0491 10.1278 81.0491H19.7328L19.7733 86.4121C19.8101 91.2843 19.8356 91.8075 20.052 92.1305C20.4478 92.7213 20.9731 92.6198 21.785 91.7958C23.5184 90.0369 29.7328 81.9962 34.4363 75.4266C35.3227 74.1886 35.8788 73.7619 36.8966 73.539C38.9929 73.0798 40.9676 74.6469 40.9676 76.7695C40.9676 77.3629 40.8837 77.7458 40.6611 78.1677C40.4926 78.4872 37.0023 83.1853 32.9048 88.6079C28.8074 94.0306 25.3038 98.763 25.1191 99.1244C23.8221 101.663 26.3406 105.113 29.5039 105.131C30.6569 105.137 31.5682 104.81 32.248 104.145C33.1583 103.254 34.6408 101.383 40.4966 93.7348C50.4952 80.6755 54.6014 75.5899 58.925 70.9109C61.4914 68.1335 63.3688 66.4824 64.7322 65.8034C65.8084 65.2674 67.1272 65.6277 67.6925 66.6122C68.7126 68.3886 67.5595 72.0563 63.8358 78.8801C60.8791 84.2982 59.0481 87.2487 48.5076 103.578L40.9659 115.262L41.6361 115.175C44.1317 114.851 47.6244 114.849 51.6574 115.169L52.7443 115.256L54.8009 111.725C67.319 90.2384 77.9338 75.8863 86.0428 69.4843C88.1508 67.8199 90.5253 66.4891 92.4147 65.9129C93.7095 65.518 95.9077 65.479 96.8477 65.834C97.621 66.1262 98.38 66.8811 98.6477 67.6242C98.9764 68.5362 98.9166 69.9548 98.502 71.0834C97.5386 73.7065 95.2769 77.504 90.7271 84.1384C82.713 95.8242 81.4479 98.1048 80.7828 102.065C80.4732 103.908 80.5705 106.972 80.9829 108.369C81.5697 110.358 82.5518 112.022 83.9415 113.383C85.8045 115.206 87.8499 116.039 90.4715 116.04C91.4772 116.041 91.907 115.97 92.9209 115.637C95.8126 114.689 98.3158 112.965 102.195 109.249C104.821 106.733 106.371 105.049 110.002 100.768C116.141 93.528 120.208 88.308 121.217 86.3736C121.541 85.7527 125 81.11 127.24 78.2885C133.92 69.8761 138.299 65.7963 140.884 65.5756C141.514 65.5218 141.706 65.5604 142.095 65.8207C142.881 66.345 143.111 66.8829 143.1 68.1663C143.085 70.047 142.48 71.7584 140.289 76.1195C137.354 81.963 135.219 85.4377 123.008 104.251C119.207 110.108 116.046 114.983 115.984 115.084C115.89 115.238 115.983 115.254 116.529 115.178C118.92 114.847 125.187 114.841 127.27 115.168L127.815 115.254L129.41 112.447C139.264 95.1046 150.319 79.6741 158.879 71.3142C161.411 68.8412 162.996 67.5543 164.642 66.6333C168.299 64.5875 171.006 65.5121 171.33 68.9168C171.503 70.7413 170.777 72.8584 168.341 77.6312C165.436 83.3234 162.805 87.6392 152.314 103.923C148.424 109.96 145.191 114.983 145.129 115.084C145.035 115.238 145.128 115.254 145.674 115.18C148.123 114.847 154.36 114.842 156.339 115.171L156.809 115.25L157.544 114.023C162.492 105.762 170.238 93.9772 174.956 87.5334C183.6 75.7285 190.309 68.8808 195.616 66.4465C198.079 65.3167 200.428 65.2376 201.763 66.2394C202.461 66.7629 202.797 67.3976 202.975 68.5264C203.164 69.7194 202.823 71.0352 201.767 73.1946C200.334 76.1254 198.61 78.7915 193.16 86.5046C191.423 88.9629 189.582 91.5953 189.068 92.3545C187.13 95.2181 185.5 99.0639 185.012 101.927C184.694 103.786 184.784 106.682 185.208 108.261C186.238 112.1 188.89 114.908 192.294 115.761C193.539 116.073 195.331 116.128 196.364 115.885C200.729 114.86 206.289 110.17 213.936 101.061C215.189 99.5676 221.64 91.1536 227.314 83.6126C230.76 79.0311 230.874 78.8972 231.62 78.5153C232.378 78.1271 233.834 78.1238 234.576 78.5086C236.196 79.3482 236.949 81.2327 236.259 82.72C236.118 83.0243 233.025 87.2835 229.386 92.1849L222.769 101.096L222.717 101.951C222.611 103.665 223.696 105.326 225.483 106.187C226.281 106.572 226.497 106.617 227.52 106.616C228.685 106.614 229.432 106.376 230.116 105.787C230.249 105.672 233.754 101.027 237.906 95.4637C242.057 89.9007 245.626 85.1785 245.837 84.97C246.509 84.3064 246.966 84.1421 248.14 84.1421C249.338 84.1421 249.783 84.3093 250.53 85.0407C251.082 85.5806 251.406 86.2313 251.517 87.0177C251.667 88.0917 251.385 88.6763 249.592 91.0036C247.974 93.1048 247.742 93.556 248.1 93.9057L255.669 94.0604V92.8067H249.819C249.819 92.7662 250.392 91.9474 251.093 90.9869C252.604 88.9154 252.805 88.4916 252.798 87.3885C252.789 85.7756 251.644 84.123 249.982 83.3244C249.304 82.9984 249.065 82.9553 247.938 82.9557C246.503 82.9561 245.935 83.1627 245.167 83.9625C244.935 84.2039 241.438 88.838 237.396 94.2606C233.354 99.6832 229.887 104.288 229.691 104.494C229.066 105.152 228.368 105.427 227.322 105.427C226.211 105.427 225.545 105.14 224.811 104.344C224.192 103.674 223.937 102.885 224.011 101.869C224.022 101.715 227.015 97.5068 230.663 92.5166C234.499 87.2685 237.401 83.1743 237.546 82.805C238.312 80.8633 237.085 78.4375 234.81 77.3941C234.161 77.0964 233.855 77.0397 232.896 77.0397C231.881 77.0397 231.672 77.0835 231.015 77.4341C230.319 77.8058 229.961 78.241 224.77 85.0171C221.741 88.9708 218.266 93.5255 217.047 95.1386C209.029 105.751 202.527 112.26 198.168 114.039C196.08 114.892 194.073 114.817 192.892 113.844C192.184 113.261 191.891 112.556 191.825 111.274C191.752 109.871 192.078 108.504 192.929 106.647C193.886 104.56 194.421 103.716 199.743 95.9038C205.775 87.049 206.878 85.0992 208.112 81.1149C209.065 78.0376 209.239 74.7514 208.583 72.2415C207.725 68.9585 205.495 66.0596 202.922 64.8811C198.482 62.8476 193.718 64.8523 186.684 71.7141C183.093 75.2163 179.708 79.1149 175.55 84.5345C174.497 85.9073 173.578 87.0896 173.508 87.1619C173.437 87.2342 173.665 86.7906 174.013 86.176C175.404 83.7229 176.552 81.0157 177.185 78.7017C177.57 77.2935 177.604 76.9978 177.613 75.0021C177.624 72.3731 177.367 71.1735 176.357 69.1421C175.616 67.6521 174.334 66.173 173.077 65.3563C171.479 64.3182 169.14 63.8803 167.315 64.2777C162.367 65.3552 155.457 71.9412 146.706 83.9214C145.563 85.4867 144.575 86.8217 144.511 86.888C144.447 86.9542 144.901 86.0256 145.519 84.8242C149.088 77.8871 149.899 73.3333 148.289 69.2652C147.529 67.3423 145.893 65.4546 144.346 64.7129C143.283 64.2035 142.026 64.0098 140.997 64.197C139.886 64.3993 138.261 65.183 136.864 66.191C135.467 67.1995 131.734 70.8488 130.003 72.8988C126.562 76.973 122.146 82.6364 120.008 85.7159C112.799 96.1009 105.077 105.49 100.271 109.713C95.4537 113.947 92.0573 115.383 89.4549 114.286C88.712 113.973 88.3047 113.61 87.9293 112.928C87.5356 112.212 87.5165 110.124 87.894 109.05C88.9342 106.087 91.4255 101.767 96.3092 94.4578C102.943 84.5299 105.374 78.8044 104.895 74.2393C104.544 70.8905 103.369 68.4399 101.148 66.4281C97.7603 63.3577 93.1809 63.3488 88.2812 66.4028C84.2722 68.9018 79.1124 74.4233 71.4147 84.452C69.9377 86.3763 68.6691 88.0098 68.5955 88.0821C68.4231 88.2513 68.4727 88.161 69.139 87.0891C70.8603 84.3206 72.3998 81.1945 73.2094 78.824C74.0082 76.4848 74.1802 75.559 74.1758 73.6218C74.1713 71.5467 73.8976 70.3862 72.9841 68.5705C72.1776 66.967 70.6312 65.3664 69.2988 64.7562C67.8186 64.0783 66.5014 63.9355 65.343 64.3276Z" fill="white"/>
</svg>
