<svg width="64" height="46" viewBox="0 0 64 46" fill="none" xmlns="http://www.w3.org/2000/svg">
<path fill-rule="evenodd" clip-rule="evenodd" d="M30.7045 0.0188221C24.9605 0.289087 20.3024 1.94812 16.4246 5.10472C15.8253 5.59257 14.461 6.93491 13.9358 7.55356C12.7314 8.97202 11.75 10.4899 11.0182 12.0657C10.9542 12.2036 10.8846 12.3268 10.8636 12.3396C10.8023 12.3767 10.6714 12.6557 10.625 12.8486C10.5644 13.1003 10.6 13.566 10.7021 13.8552C10.8824 14.3661 11.1202 14.7257 11.5508 15.1386C11.9301 15.5024 12.3284 15.7505 12.787 15.9084C13.1098 16.0196 13.1543 16.0265 13.55 16.0268C13.9396 16.0271 13.9849 16.0204 14.1697 15.9357C14.4828 15.7922 14.6407 15.6458 14.7801 15.3697C14.8856 15.1608 14.9055 15.0848 14.92 14.8352C14.9893 13.6467 13.8326 12.2854 12.4692 11.9508C12.3494 11.9213 12.2107 11.8973 12.161 11.8973C12.1114 11.8973 12.0707 11.8875 12.0707 11.8755C12.0707 11.8358 12.2461 11.5579 12.5815 11.0661C14.1522 8.76279 16.1944 6.73911 18.4923 5.20868C22.1288 2.78676 26.1085 1.43668 30.3941 1.17119C31.108 1.12696 32.6083 1.12706 33.3191 1.17142C35.3717 1.2995 37.4385 1.67773 39.2542 2.25761C40.1592 2.54664 40.6919 2.76445 41.5719 3.20527C43.1582 3.99987 44.4776 4.85661 45.8261 5.96777C46.4034 6.44354 47.8106 7.83037 48.3033 8.40914C50.1674 10.5989 51.6489 13.2272 52.3544 15.5962L52.4975 16.0765H53.129C53.5582 16.0765 53.7606 16.0651 53.7606 16.041C53.7606 15.9774 53.422 14.988 53.1983 14.3982C51.6153 10.2227 49.078 6.81424 45.7084 4.33691C42.4277 1.92486 38.3689 0.437103 34.0588 0.0666039C33.3426 0.00503498 31.5422 -0.0206004 30.7045 0.0188221ZM10.2419 29.4702C10.2329 29.4844 10.3209 29.7772 10.4374 30.1208C11.5132 33.2928 12.9943 35.9028 15.0403 38.2319C15.4363 38.6826 16.6622 39.883 17.112 40.2604C19.7916 42.5086 22.8401 44.0313 26.3577 44.8785C28.4946 45.3932 30.5724 45.5944 32.8892 45.511C34.9353 45.4374 36.6565 45.2267 38.3549 44.842C43.5126 43.6736 47.7398 41.0356 50.7662 37.0966C51.5122 36.1257 52.1025 35.1866 52.6797 34.0527C52.8962 33.6274 53.1222 33.2054 53.182 33.1149C53.3373 32.8799 53.4032 32.6379 53.4016 32.3087C53.3959 31.1297 52.2309 29.827 50.912 29.5251C50.5966 29.4529 50.1116 29.4755 49.8504 29.5745C49.3059 29.7811 48.9924 30.3692 49.0838 31.0124C49.175 31.654 49.5014 32.229 50.0813 32.7694C50.3844 33.0519 50.6268 33.2171 50.9758 33.3789C51.231 33.4972 51.6836 33.6249 51.8477 33.6249C51.9002 33.6249 51.9432 33.6317 51.9432 33.64C51.9432 33.6665 51.4725 34.3872 51.2438 34.7109C50.4688 35.8078 49.6508 36.7628 48.6344 37.7576C47.489 38.8788 46.4897 39.6794 45.1854 40.5212C41.8182 42.6941 38.2649 43.9242 34.2418 44.3095C33.3773 44.3923 30.9065 44.3919 30.0392 44.3087C28.0866 44.1216 26.4037 43.7926 24.7706 43.2789C23.3344 42.8272 21.8209 42.0933 20.306 41.1141C17.275 39.155 14.9141 36.624 13.1515 33.4439C12.5084 32.2838 11.8607 30.7467 11.5706 29.6926L11.5072 29.4622L10.8827 29.4533C10.5392 29.4484 10.2509 29.456 10.2419 29.4702Z" fill="white"/>
<path d="M16.3569 16.1028C15.9505 16.2403 15.4699 16.5971 14.7762 17.2764C13.7384 18.2927 13.2724 18.8609 10.272 22.7684C7.99229 25.7373 7.91281 25.8362 7.736 25.9239C7.52779 26.0271 7.23774 26.0462 7.04926 25.9691C6.61828 25.7929 6.39668 25.246 6.59978 24.86C6.64188 24.78 7.4594 23.6886 8.41652 22.4346C9.37364 21.1807 10.1845 20.1071 10.2184 20.0489C10.2523 19.9906 10.3345 19.8645 10.401 19.7686C10.5956 19.4879 10.635 19.2594 10.5417 18.9521C10.4302 18.5847 10.1014 18.2641 9.71539 18.1465C9.37213 18.0419 9.02519 18.0847 8.77983 18.2619C8.71776 18.3067 8.23319 18.9254 7.70302 19.6368C6.4229 21.3544 6.01152 21.8965 5.58537 22.4272L5.22886 22.8712L5.21205 21.4071L5.19524 19.943L2.64375 19.9346C0.786768 19.9285 0.079822 19.9363 0.0465374 19.9633C-0.0242682 20.0208 -0.0114574 20.214 0.0658369 20.2545C0.108939 20.2771 0.942131 20.2886 2.53522 20.2886H4.93958L4.94974 21.631C4.95895 22.8507 4.96534 22.9816 5.0195 23.0625C5.11858 23.2104 5.25007 23.185 5.45331 22.9787C5.88722 22.5384 7.44282 20.5256 8.62023 18.8811C8.84212 18.5712 8.98132 18.4644 9.2361 18.4086C9.76085 18.2936 10.2552 18.6859 10.2552 19.2173C10.2552 19.3658 10.2342 19.4616 10.1785 19.5673C10.1363 19.6472 9.26256 20.8233 8.23685 22.1807C7.21118 23.5381 6.33414 24.7228 6.28792 24.8132C5.96324 25.4487 6.5937 26.3122 7.38554 26.3167C7.67417 26.3184 7.90229 26.2364 8.07244 26.0699C8.30033 25.847 8.67143 25.3786 10.1373 23.4641C12.6402 20.195 13.668 18.922 14.7504 17.7507C15.3928 17.0554 15.8627 16.6421 16.204 16.4722C16.4734 16.338 16.8035 16.4282 16.9451 16.6746C17.2004 17.1193 16.9118 18.0374 15.9796 19.7456C15.2395 21.1019 14.7812 21.8404 12.1426 25.9281L10.2547 28.8529L10.4225 28.8311C11.0472 28.75 11.9215 28.7495 12.9311 28.8297L13.2032 28.8513L13.718 27.9676C16.8516 22.5888 19.5087 18.9962 21.5386 17.3936C22.0663 16.977 22.6607 16.6438 23.1336 16.4996C23.4578 16.4007 24.008 16.391 24.2433 16.4798C24.4369 16.553 24.6269 16.7419 24.6939 16.928C24.7762 17.1563 24.7612 17.5114 24.6574 17.7939C24.4163 18.4505 23.8501 19.4011 22.7112 21.0619C20.705 23.9871 20.3884 24.558 20.2219 25.5494C20.1444 26.0108 20.1687 26.7775 20.272 27.1275C20.4189 27.6253 20.6647 28.0419 21.0126 28.3824C21.4789 28.8389 21.9909 29.0472 22.6472 29.0476C22.8989 29.0478 23.0065 29.0301 23.2603 28.9468C23.9842 28.7095 24.6108 28.2778 25.5818 27.3477C26.2393 26.7177 26.6271 26.2964 27.536 25.2246C29.0729 23.4123 30.0911 22.1056 30.3436 21.6214C30.4247 21.466 31.2904 20.3038 31.8513 19.5975C33.5234 17.4917 34.6195 16.4704 35.2667 16.4151C35.4244 16.4017 35.4723 16.4114 35.5699 16.4765C35.7665 16.6077 35.8242 16.7424 35.8215 17.0637C35.8175 17.5344 35.6661 17.9629 35.1177 19.0545C34.383 20.5173 33.8487 21.3871 30.7919 26.0966C29.8404 27.5626 29.0491 28.7829 29.0335 28.8084C29.0099 28.8468 29.0332 28.8508 29.1701 28.8319C29.7686 28.7489 31.3372 28.7474 31.8587 28.8293L31.9953 28.8508L32.3944 28.1483C34.8612 23.807 37.6285 19.9443 39.7712 17.8517C40.4051 17.2326 40.8017 16.9105 41.2139 16.6799C42.1293 16.1678 42.807 16.3992 42.8879 17.2515C42.9313 17.7083 42.7495 18.2382 42.1398 19.433C41.4126 20.8578 40.754 21.9382 38.1278 26.0144C37.1541 27.5256 36.3447 28.7829 36.3292 28.8084C36.3057 28.8468 36.3291 28.8509 36.4658 28.8323C37.0787 28.7489 38.6401 28.7477 39.1355 28.8302L39.2532 28.8498L39.4371 28.5427C40.6755 26.4747 42.6146 23.5248 43.7957 21.9117C45.9594 18.9567 47.6389 17.2425 48.9675 16.6332C49.5841 16.3503 50.172 16.3305 50.5062 16.5813C50.6808 16.7124 50.7651 16.8712 50.8096 17.1538C50.8568 17.4524 50.7715 17.7818 50.5072 18.3224C50.1484 19.056 49.7168 19.7234 48.3527 21.6542C47.9179 22.2696 47.4569 22.9285 47.3283 23.1186C46.843 23.8354 46.4351 24.7981 46.3129 25.5148C46.2335 25.9801 46.2559 26.7051 46.3619 27.1003C46.6197 28.0614 47.2838 28.7642 48.1358 28.9777C48.4476 29.0559 48.896 29.0696 49.1545 29.0089C50.2474 28.7523 51.6391 27.5781 53.5533 25.2979C53.8671 24.9242 55.4819 22.8179 56.9021 20.9302C57.7649 19.7834 57.7932 19.7499 57.98 19.6543C58.1699 19.5571 58.5343 19.5563 58.7201 19.6526C59.1256 19.8628 59.3141 20.3345 59.1414 20.7068C59.1061 20.783 58.3318 21.8492 57.4209 23.0761L55.7645 25.3069L55.7514 25.5208C55.7249 25.9498 55.9964 26.3656 56.4438 26.5812C56.6437 26.6775 56.6977 26.6889 56.9539 26.6886C57.2453 26.6882 57.4324 26.6284 57.6035 26.481C57.6369 26.4523 58.5144 25.2895 59.5536 23.8969C60.5927 22.5043 61.4861 21.3222 61.539 21.27C61.707 21.1039 61.8214 21.0628 62.1154 21.0628C62.4153 21.0628 62.5267 21.1046 62.7137 21.2877C62.8518 21.4229 62.9331 21.5858 62.9607 21.7826C62.9983 22.0515 62.9276 22.1978 62.479 22.7804C62.074 23.3064 62.0158 23.4193 62.1053 23.5069L64 23.5456V23.2317H62.5356C62.5356 23.2216 62.6791 23.0166 62.8545 22.7762C63.2329 22.2577 63.2832 22.1516 63.2815 21.8755C63.2792 21.4717 62.9925 21.058 62.5766 20.8581C62.4068 20.7765 62.347 20.7657 62.0649 20.7658C61.7057 20.7659 61.5633 20.8176 61.3711 21.0178C61.3131 21.0783 60.4378 22.2383 59.4259 23.5957C58.4141 24.9531 57.5462 26.1058 57.4973 26.1572C57.3407 26.322 57.166 26.3909 56.9041 26.3909C56.626 26.3909 56.4594 26.319 56.2755 26.1198C56.1206 25.952 56.0569 25.7547 56.0753 25.5002C56.0781 25.4618 56.8274 24.4083 57.7405 23.1591C58.7007 21.8454 59.4271 20.8205 59.4636 20.7281C59.6551 20.242 59.348 19.6348 58.7786 19.3736C58.6161 19.2991 58.5395 19.2849 58.2994 19.2849C58.0454 19.2849 57.9931 19.2959 57.8287 19.3836C57.6544 19.4767 57.5647 19.5856 56.2653 21.2818C55.5072 22.2715 54.6372 23.4117 54.3321 23.8155C52.3249 26.4721 50.6974 28.1014 49.6063 28.5468C49.0835 28.7601 48.5812 28.7416 48.2854 28.498C48.1082 28.352 48.035 28.1756 48.0184 27.8545C48.0002 27.5034 48.0818 27.1612 48.2949 26.6963C48.5342 26.1739 48.6682 25.9627 50.0004 24.007C51.5104 21.7905 51.7866 21.3024 52.0954 20.305C52.3339 19.5347 52.3776 18.7121 52.2133 18.0838C51.9985 17.262 51.4404 16.5363 50.7963 16.2413C49.6849 15.7323 48.4924 16.2341 46.7314 17.9518C45.8326 18.8284 44.9852 19.8044 43.9445 21.161C43.6809 21.5047 43.4508 21.8006 43.4332 21.8187C43.4156 21.8368 43.4725 21.7258 43.5597 21.5719C43.9078 20.9578 44.1953 20.2802 44.3536 19.7009C44.4499 19.3484 44.4585 19.2744 44.4607 18.7748C44.4636 18.1167 44.3993 17.8165 44.1463 17.3079C43.9608 16.9349 43.6401 16.5647 43.3253 16.3603C42.9254 16.1004 42.3398 15.9908 41.883 16.0903C40.6443 16.36 38.9146 18.0086 36.7241 21.0075C36.4379 21.3994 36.1906 21.7336 36.1746 21.7501C36.1586 21.7667 36.2721 21.5343 36.4268 21.2335C37.3203 19.497 37.5233 18.3571 37.1204 17.3387C36.9299 16.8574 36.5206 16.3849 36.1332 16.1992C35.8671 16.0717 35.5525 16.0232 35.2951 16.07C35.0168 16.1207 34.6102 16.3169 34.2605 16.5692C33.9107 16.8216 32.9761 17.7352 32.5428 18.2483C31.6816 19.2682 30.5761 20.6859 30.041 21.4568C28.2363 24.0564 26.3033 26.4066 25.1003 27.4638C23.8944 28.5236 23.0441 28.8831 22.3927 28.6086C22.2068 28.5302 22.1048 28.4394 22.0108 28.2685C21.9123 28.0893 21.9075 27.5667 22.002 27.2977C22.2624 26.5562 22.886 25.4749 24.1085 23.6451C25.769 21.1599 26.3776 19.7266 26.2578 18.5839C26.1699 17.7456 25.8756 17.1322 25.3199 16.6285C24.4718 15.86 23.3254 15.8577 22.0989 16.6222C21.0953 17.2478 19.8037 18.6299 17.8768 21.1404C17.5071 21.6221 17.1895 22.031 17.1711 22.0491C17.128 22.0914 17.1404 22.0688 17.3072 21.8005C17.738 21.1075 18.1234 20.3249 18.3261 19.7315C18.526 19.146 18.5691 18.9142 18.568 18.4293C18.5669 17.9099 18.4983 17.6194 18.2697 17.1649C18.0678 16.7635 17.6807 16.3628 17.3472 16.21C16.9766 16.0403 16.6469 16.0046 16.3569 16.1028Z" fill="white"/>
</svg>
