<svg width="233" height="27" viewBox="0 0 233 27" fill="none" xmlns="http://www.w3.org/2000/svg">
<path d="M0.890625 26V0.125H2.57812L19.3594 19.4609V0.125H22.5938V26H20.9531L4.10156 6.66406V26H0.890625ZM40.3594 23.7031C43.0312 23.7031 45.2109 22.9844 46.8984 21.5469C48.5859 20.0938 49.4297 18.25 49.4297 16.0156C49.4297 13.7969 48.5781 11.9609 46.875 10.5078C45.1875 9.05469 43.0156 8.32812 40.3594 8.32812C37.7031 8.32812 35.5312 9.05469 33.8438 10.5078C32.1719 11.9453 31.3359 13.7812 31.3359 16.0156C31.3359 18.25 32.1719 20.0938 33.8438 21.5469C35.5312 22.9844 37.7031 23.7031 40.3594 23.7031ZM40.3594 26.6328C36.7969 26.6328 33.8672 25.625 31.5703 23.6094C29.2734 21.5938 28.125 19.0625 28.125 16.0156C28.125 12.9531 29.2656 10.4297 31.5469 8.44531C33.8438 6.44531 36.7812 5.44531 40.3594 5.44531C43.9688 5.44531 46.9141 6.4375 49.1953 8.42188C51.4922 10.4062 52.6406 12.9375 52.6406 16.0156C52.6406 19.0781 51.4922 21.6172 49.1953 23.6328C46.8984 25.6328 43.9531 26.6328 40.3594 26.6328ZM66.4688 26H64.8516L54.7969 5.98438H58.125L65.6484 20.9609L73.0547 5.98438H76.5L66.4688 26ZM81.8672 18.2656H89.6953L85.8047 10.6016L81.8672 18.2656ZM74.625 26L84.7969 5.98438H86.7656L97.0312 26H93.6797L91.0781 20.9141H80.5078L77.9297 26H74.625ZM116.344 26V0.125H119.32L129.773 15.9688L140.297 0.125H143.227V26H140.039V5.79688L129.773 21.1016L119.508 5.79688V26H116.344ZM150.352 6.03125H153.492V18.8516C153.492 20.7734 153.945 22.0703 154.852 22.7422C155.758 23.4141 157.555 23.75 160.242 23.75C162.945 23.75 164.75 23.4141 165.656 22.7422C166.562 22.0703 167.016 20.7734 167.016 18.8516V6.03125H170.133V19.6719C170.133 22.125 169.352 23.8984 167.789 24.9922C166.242 26.0859 163.711 26.6328 160.195 26.6328C156.695 26.6328 154.18 26.0938 152.648 25.0156C151.117 23.9375 150.352 22.1562 150.352 19.6719V6.03125ZM175.312 23.4453L176.836 20.8203C178.211 21.7422 179.711 22.4609 181.336 22.9766C182.961 23.4922 184.516 23.75 186 23.75C187.781 23.75 189.219 23.3906 190.312 22.6719C191.406 21.9375 191.953 21 191.953 19.8594C191.953 18.7188 191.453 17.875 190.453 17.3281C189.453 16.7656 187.875 16.4531 185.719 16.3906C182.078 16.3438 179.578 15.9219 178.219 15.125C176.859 14.3281 176.18 13.0078 176.18 11.1641C176.18 9.44531 176.922 8.0625 178.406 7.01562C179.906 5.96875 181.914 5.44531 184.43 5.44531C186.148 5.44531 187.812 5.6875 189.422 6.17188C191.047 6.65625 192.609 7.375 194.109 8.32812L192.539 10.9297C191.289 10.0859 189.945 9.4375 188.508 8.98438C187.07 8.51562 185.695 8.28125 184.383 8.28125C182.867 8.28125 181.648 8.54688 180.727 9.07812C179.805 9.60938 179.344 10.3047 179.344 11.1641C179.344 12.0547 179.805 12.6875 180.727 13.0625C181.664 13.4375 183.281 13.625 185.578 13.625C188.766 13.625 191.172 14.1641 192.797 15.2422C194.422 16.3203 195.234 17.9219 195.234 20.0469C195.234 21.9375 194.406 23.5078 192.75 24.7578C191.109 26.0078 188.977 26.6328 186.352 26.6328C184.414 26.6328 182.484 26.3594 180.562 25.8125C178.656 25.25 176.906 24.4609 175.312 23.4453ZM200.836 26V5.9375H204.023V26H200.836ZM232.102 21.1016C230.961 22.8984 229.461 24.2734 227.602 25.2266C225.758 26.1641 223.656 26.6328 221.297 26.6328C217.781 26.6328 214.883 25.6406 212.602 23.6562C210.336 21.6562 209.203 19.125 209.203 16.0625C209.203 13 210.336 10.4688 212.602 8.46875C214.883 6.45312 217.781 5.44531 221.297 5.44531C223.484 5.44531 225.469 5.85938 227.25 6.6875C229.031 7.5 230.469 8.65625 231.562 10.1562L229.078 11.8906C228.25 10.75 227.156 9.875 225.797 9.26562C224.453 8.64062 222.953 8.32812 221.297 8.32812C218.734 8.32812 216.609 9.0625 214.922 10.5312C213.25 11.9844 212.414 13.8125 212.414 16.0156C212.414 18.2188 213.258 20.0547 214.945 21.5234C216.633 22.9766 218.75 23.7031 221.297 23.7031C223.078 23.7031 224.648 23.3516 226.008 22.6484C227.367 21.9453 228.562 20.8516 229.594 19.3672L232.102 21.1016Z" fill="white"/>
</svg>
