<svg width="33" height="32" viewBox="0 0 33 32" fill="none" xmlns="http://www.w3.org/2000/svg">
<path d="M30.0693 0.0911865L10.0693 5.96619C9.25681 6.27869 8.69431 7.02869 8.69431 7.90369V24.2162C8.00681 24.0912 7.38181 24.0287 6.69431 23.9662C3.38181 23.9662 0.694305 25.7787 0.694305 27.9662C0.694305 30.2162 3.38181 31.9662 6.69431 31.9662C10.0068 31.9662 12.6943 30.2162 12.6943 27.9662V13.4037L28.6943 8.71619V20.2162C28.0068 20.0912 27.3818 20.0287 26.6943 19.9662C23.3818 19.9662 20.6943 21.7787 20.6943 23.9662C20.6943 26.2162 23.3818 27.9662 26.6943 27.9662C30.0068 27.9662 32.6943 26.2162 32.6943 23.9662V1.96619C32.6318 0.903687 31.7568 0.0286865 30.6943 0.0286865C30.4443 0.0286865 30.2568 0.0286865 30.0693 0.0911865Z" fill="black"/>
</svg>
