<svg width="48" height="42" viewBox="0 0 48 42" fill="none" xmlns="http://www.w3.org/2000/svg">
<path d="M43.5 0H4.5C1.96875 0 0 2.0625 0 4.5V37.5C0 40.0312 1.96875 42 4.5 42H43.5C45.9375 42 48 40.0312 48 37.5V4.5C48 2.0625 45.9375 0 43.5 0ZM35.625 27.2812C36.0938 27.75 36.0938 28.5 35.625 28.875L31.7812 32.7188C31.4062 33.1875 30.6562 33.1875 30.1875 32.7188L24 26.4375L17.7188 32.7188C17.25 33.1875 16.5 33.1875 16.125 32.7188L12.2812 28.875C11.8125 28.5 11.8125 27.75 12.2812 27.2812L18.5625 21L12.2812 14.8125C11.8125 14.3438 11.8125 13.5938 12.2812 13.2188L16.125 9.375C16.5 8.90625 17.25 8.90625 17.7188 9.375L24 15.6562L30.1875 9.375C30.6562 8.90625 31.4062 8.90625 31.7812 9.375L35.625 13.2188C36.0938 13.5938 36.0938 14.3438 35.625 14.8125L29.3438 21L35.625 27.2812Z" fill="white"/>
</svg>
