<svg width="14" height="9" viewBox="0 0 14 9" fill="none" xmlns="http://www.w3.org/2000/svg">
<path d="M12.8672 1.42969C12.7266 0.867188 12.2812 0.421875 11.7422 0.28125C10.7344 0 6.75 0 6.75 0C6.75 0 2.74219 0 1.73438 0.28125C1.19531 0.421875 0.75 0.867188 0.609375 1.42969C0.328125 2.41406 0.328125 4.52344 0.328125 4.52344C0.328125 4.52344 0.328125 6.60938 0.609375 7.61719C0.75 8.17969 1.19531 8.60156 1.73438 8.74219C2.74219 9 6.75 9 6.75 9C6.75 9 10.7344 9 11.7422 8.74219C12.2812 8.60156 12.7266 8.17969 12.8672 7.61719C13.1484 6.60938 13.1484 4.52344 13.1484 4.52344C13.1484 4.52344 13.1484 2.41406 12.8672 1.42969ZM5.4375 6.42188V2.625L8.76562 4.52344L5.4375 6.42188Z" fill="black"/>
</svg>
